<svg version="1.1" xmlns="http://www.w3.org/2000/svg" xmlns:xlink="http://www.w3.org/1999/xlink" width="66.17562" height="61.32166" viewBox="0,0,66.17562,61.32166"><g transform="translate(-214.41219,-168.84656)"><g data-paper-data="{&quot;isPaintingLayer&quot;:true}" fill-rule="nonzero" stroke-width="2" stroke-linejoin="miter" stroke-miterlimit="10" stroke-dasharray="" stroke-dashoffset="0" style="mix-blend-mode: normal"><g><g><path d="M279.58781,212.75c0,2.7081 -4.6657,4.90344 -10.42114,4.90344c-5.75544,0 -10.42114,-2.19535 -10.42114,-4.90344c0,-2.7081 4.6657,-4.90344 10.42114,-4.90344c5.75544,0 10.42114,2.19534 10.42114,4.90344z" fill="#f066ff" stroke="#000000" stroke-linecap="butt"/><path d="M269.76667,209.70751l-3.6,2.75272h6l-3.3,3.33225" fill="none" stroke="#ffffff" stroke-linecap="round"/></g><path d="M279.54168,214.16667v5l-4.74316,1.66667l-8.80875,0.33333l-4.06557,-0.33333l-3.04918,-2v-3.33334l0.67759,0.00001l2.71039,1.33333l5.75956,1l7.45356,-1l2.71038,-1.33333z" fill="#000000" stroke="#000000" stroke-linecap="round"/></g><g><g><path d="M236.25448,206.08333c0,2.7081 -4.6657,4.90344 -10.42114,4.90344c-5.75544,0 -10.42114,-2.19534 -10.42114,-4.90344c0,-2.7081 4.6657,-4.90344 10.42114,-4.90344c5.75544,0 10.42114,2.19535 10.42114,4.90344z" fill="#f066ff" stroke="#000000" stroke-linecap="butt"/><path d="M226.43334,203.04084l-3.6,2.75272h6l-3.3,3.33225" fill="none" stroke="#ffffff" stroke-linecap="round"/></g><path d="M236.20834,207.5v5l-4.74317,1.66667l-8.80875,0.33333l-4.06557,-0.33333l-3.04918,-2v-3.33334h0.67759l2.71038,1.33333l5.75956,1l7.45355,-1l2.71038,-1.33333z" fill="#000000" stroke="#000000" stroke-linecap="round"/></g><g><g><path d="M239.92115,196.75c0,2.7081 -4.6657,4.90344 -10.42114,4.90344c-5.75544,0 -10.42114,-2.19535 -10.42114,-4.90344c0,-2.7081 4.6657,-4.90344 10.42114,-4.90344c5.75544,0 10.42114,2.19534 10.42114,4.90344z" fill="#f066ff" stroke="#000000" stroke-linecap="butt"/><path d="M230.10001,193.70751l-3.6,2.75272h6l-3.3,3.33225" fill="none" stroke="#ffffff" stroke-linecap="round"/></g><path d="M239.87501,198.16667v5l-4.74317,1.66667l-8.80875,0.33333l-4.06557,-0.33333l-3.04918,-2v-3.33334l0.67759,0.00001l2.71039,1.33333l5.75956,1l7.45355,-1l2.71038,-1.33333z" fill="#000000" stroke="#000000" stroke-linecap="round"/></g><g><g><path d="M257.92115,210.75c0,2.7081 -4.6657,4.90344 -10.42114,4.90344c-5.75544,0 -10.42114,-2.19535 -10.42114,-4.90344c0,-2.7081 4.6657,-4.90344 10.42114,-4.90344c5.75544,0 10.42114,2.19534 10.42114,4.90344z" fill="#f066ff" stroke="#000000" stroke-linecap="butt"/><path d="M248.10001,207.70751l-3.6,2.75272h6l-3.3,3.33225" fill="none" stroke="#ffffff" stroke-linecap="round"/></g><path d="M257.87501,212.16667v5l-4.74316,1.66667l-8.80875,0.33333l-4.06557,-0.33333l-3.04918,-2v-3.33334l0.67759,0.00001l2.71039,1.33333l5.75956,1l7.45355,-1l2.71038,-1.33333z" fill="#000000" stroke="#000000" stroke-linecap="round"/></g><g><g><path d="M260.25448,200.75c0,2.7081 -4.6657,4.90344 -10.42114,4.90344c-5.75544,0 -10.42114,-2.19535 -10.42114,-4.90344c0,-2.7081 4.6657,-4.90344 10.42114,-4.90344c5.75544,0 10.42114,2.19534 10.42114,4.90344z" fill="#f066ff" stroke="#000000" stroke-linecap="butt"/><path d="M250.43334,197.70751l-3.6,2.75272h6l-3.3,3.33225" fill="none" stroke="#ffffff" stroke-linecap="round"/></g><path d="M260.20834,202.16667v5l-4.74316,1.66667l-8.80875,0.33333l-4.06557,-0.33333l-3.04918,-2v-3.33334l0.67759,0.00001l2.71039,1.33333l5.75956,1l7.45356,-1l2.71038,-1.33333z" fill="#000000" stroke="#000000" stroke-linecap="round"/></g><g><g><path d="M244.25448,217.08333c0,2.7081 -4.6657,4.90344 -10.42114,4.90344c-5.75544,0 -10.42114,-2.19535 -10.42114,-4.90344c0,-2.7081 4.6657,-4.90344 10.42114,-4.90344c5.75544,0 10.42114,2.19534 10.42114,4.90344z" fill="#f066ff" stroke="#000000" stroke-linecap="butt"/><path d="M234.43334,214.04085l-3.6,2.75272h6l-3.3,3.33225" fill="none" stroke="#ffffff" stroke-linecap="round"/></g><path d="M244.20834,218.5v5l-4.74317,1.66667l-8.80875,0.33333l-4.06557,-0.33333l-3.04918,-2v-3.33334l0.67759,0.00001l2.71039,1.33333l5.75956,1l7.45355,-1l2.71038,-1.33333z" fill="#000000" stroke="#000000" stroke-linecap="round"/></g><g><g><path d="M265.92115,220.75c0,2.7081 -4.6657,4.90344 -10.42114,4.90344c-5.75544,0 -10.42114,-2.19535 -10.42114,-4.90344c0,-2.7081 4.6657,-4.90344 10.42114,-4.90344c5.75544,0 10.42114,2.19534 10.42114,4.90344z" fill="#f066ff" stroke="#000000" stroke-linecap="butt"/><path d="M256.10001,217.70751l-3.6,2.75272h6l-3.3,3.33225" fill="none" stroke="#ffffff" stroke-linecap="round"/></g><path d="M265.87501,222.16667v5l-4.74316,1.66667l-8.80875,0.33333l-4.06557,-0.33333l-3.04918,-2v-3.33334l0.67759,0.00001l2.71038,1.33333l5.75956,1l7.45355,-1l2.71038,-1.33333z" fill="#000000" stroke="#000000" stroke-linecap="round"/></g><g><g><path d="M250.58782,190.08333c0,2.7081 -4.6657,4.90344 -10.42114,4.90344c-5.75544,0 -10.42114,-2.19535 -10.42114,-4.90344c0,-2.7081 4.6657,-4.90344 10.42114,-4.90344c5.75544,0 10.42114,2.19534 10.42114,4.90344z" fill="#f066ff" stroke="#000000" stroke-linecap="butt"/><path d="M240.76667,187.04085l-3.6,2.75272h6l-3.3,3.33225" fill="none" stroke="#ffffff" stroke-linecap="round"/></g><path d="M250.54167,191.5v5l-4.74316,1.66667l-8.80875,0.33333l-4.06557,-0.33333l-3.04918,-2v-3.33334l0.67759,0.00001l2.71039,1.33333l5.75956,1l7.45356,-1l2.71038,-1.33333z" fill="#000000" stroke="#000000" stroke-linecap="round"/></g><g><path d="M250.42115,180c0,5.60759 -4.6657,10.15344 -10.42114,10.15344c-5.75544,0 -10.42114,-4.54585 -10.42114,-10.15344c0,-5.60759 4.6657,-10.15344 10.42114,-10.15344c5.75544,0 10.42114,4.54585 10.42114,10.15344z" fill="#f066ff" stroke="#000000" stroke-linecap="butt"/><path d="M240.60001,173.7l-3.6,5.7h6l-3.3,6.9" fill="none" stroke="#ffffff" stroke-linecap="round"/></g></g></g></svg>